# xmcd
#
# Track frame offsets: 
#        150
#        13442
#        26472
#        41122
#        56407
#        72090
#        87335
#        101652
#        116557
#        128512
#        140285
#        152242
#        165320
#        177655
#        193735
#        212035
#        223650
#        237365
#        250220
#        263762
#        278647
#        292180
#        318061
#
# Disc length: 4640 seconds
#
# Revision: 2
# Processed by: cddbd v1.5.2PL0 Copyright (c) Steve Scherf et al.
# Submitted via: ExactAudioCopyFreeDBPlugin 1.0
#
DISCID=53121e17
DTITLE=尾崎紀世彦 - -SPECIAL BOX- 尾崎紀世彦の世界 disc4 [KIEYO's Best - オリジナル・セレクショ
DTITLE=ン]
DYEAR=2007
DGENRE=JPop
TTITLE0=また逢う日まで
TTITLE1=さよならをもう一度
TTITLE2=青空は知らない
TTITLE3=サンゴ礁の娘
TTITLE4=蒼空
TTITLE5=許しておくれ
TTITLE6=おまえと夕陽
TTITLE7=めぐり逢い
TTITLE8=自由であれば
TTITLE9=いとしの蒼いバラ
TTITLE10=すぎし日の恋
TTITLE11=しのび逢い
TTITLE12=二人では死ねない
TTITLE13=愛のみに生きて
TTITLE14=恋人よ帰れ
TTITLE15=ララバイ
TTITLE16=愛をこめて
TTITLE17=君と生きる
TTITLE18=愛のワルツ
TTITLE19=この道は遠けれど
TTITLE20=あなたに賭ける
TTITLE21=メドレー：別れの夜明け～愛する人はひとり～こころの炎燃やしただけで～また逢う日まで
TTITLE22=アンコールナンバー：忘れないわ～さよならをもう一度
EXTD=
EXTT0=
EXTT1=
EXTT2=
EXTT3=
EXTT4=
EXTT5=
EXTT6=
EXTT7=
EXTT8=
EXTT9=
EXTT10=
EXTT11=
EXTT12=
EXTT13=
EXTT14=
EXTT15=
EXTT16=
EXTT17=
EXTT18=
EXTT19=
EXTT20=
EXTT21=
EXTT22=
PLAYORDER=
